<mxfile host="app.diagrams.net" modified="2023-05-28T03:24:57.760Z" agent="Mozilla/5.0 (Windows NT 10.0; Win64; x64) AppleWebKit/537.36 (KHTML, like Gecko) Chrome/113.0.0.0 Safari/537.36" version="21.3.4" etag="C7mDa2HhNC2k3O9qE6gp" type="github">
  <diagram name="Page-1" id="2MzFB7iECwaQvFBT3MBA">
    <mxGraphModel>
      <root>
        <mxCell id="0" />
        <mxCell id="1" parent="0" />
      </root>
    </mxGraphModel>
  </diagram>
</mxfile>
